PathFileType	4	(X/Y/Z)	C:/Users/opensim2020/Desktop/walking_exp_matlab/subject06_walking22_straight_03.trc																																																																																																																																		
DataRate	CameraRate	NumFrames	NumMarkers	Units	OrigDataRate	OrigDataStartFrame	OrigNumFrames																																																																																																																														
100	100	4	44	mm	100	1722	77																																																																																																																														
Frame#	Time	LFHD			RFHD			LBHD			RBHD			C7			T10			CLAV			STRN			RBAK			LSHO			LUPA			LELB			LFRM			LWRA			LWRB			LFIN			RSHO			RUPA			RELB			RFRM			RWRA			RWRB			RFIN			LASI			RASI			LPSI			RPSI			LTHI			LKNE			LTIB			LANK			LHEE			LTOE			RTHI			RKNE			RTIB			RANK			RHEE			RTOE			*39			*40			*41			*42			*43		
		X1	Y1	Z1	X2	Y2	Z2	X3	Y3	Z3	X4	Y4	Z4	X5	Y5	Z5	X6	Y6	Z6	X7	Y7	Z7	X8	Y8	Z8	X9	Y9	Z9	X10	Y10	Z10	X11	Y11	Z11	X12	Y12	Z12	X13	Y13	Z13	X14	Y14	Z14	X15	Y15	Z15	X16	Y16	Z16	X17	Y17	Z17	X18	Y18	Z18	X19	Y19	Z19	X20	Y20	Z20	X21	Y21	Z21	X22	Y22	Z22	X23	Y23	Z23	X24	Y24	Z24	X25	Y25	Z25	X26	Y26	Z26	X27	Y27	Z27	X28	Y28	Z28	X29	Y29	Z29	X30	Y30	Z30	X31	Y31	Z31	X32	Y32	Z32	X33	Y33	Z33	X34	Y34	Z34	X35	Y35	Z35	X36	Y36	Z36	X37	Y37	Z37	X38	Y38	Z38	X39	Y39	Z39	X40	Y40	Z40	X41	Y41	Z41	X42	Y42	Z42	X43	Y43	Z43	X44	Y44	Z44
																																																																																																																																					
39	0.38	11.47909	1658.3728	1355.67993	18.88565	1655.71326	1488.02637	-125.20499	1615.2179	1367.30286	-116.32419	1617.34241	1496.71399	-133.03491	1459.82715	1423.15747	-183.83742	1133.14539	1431.5697	-27.96402	1376.64221	1429.55835	3.81942	1201.255	1426.03906	-220.17892	1296.27856	1499.40283	-73.46331	1410.64917	1265.47803	-80.66872	1211.03186	1187.63025	-88.55231	1098.69958	1171.17297	-52.38932	952.38947	1149.96143	12.20526	842.01105	1198.05029	-42.18209	833.94397	1153.30798	3.72358	755.81958	1156.93079	-81.0566	1414.97998	1586.69458	-154.94455	1232.43542	1679.24939	-166.14398	1111.15576	1698.74548	-167.96605	991.76056	1722.90063	-125.03348	846.60901	1702.30029	-180.62799	854.00787	1737.88525	-151.33994	774.70764	1743.99866	-1.54598	967.24591	1332.6156	-15.36154	976.11713	1553.14917	-159.41753	998.07709	1352.47778	-164.45064	999.75342	1519.77087	-67.38922	650.36334	1280.09949	-65.42837	487.45602	1309.65808	-132.40428	238.34535	1322.10339	-164.08165	70.85894	1367.95569	-208.15894	59.3664	1412.20801	-23.65826	41.31836	1372.59363	-0.08348	652.40045	1619.02271	47.30827	535.0639	1603.28027	-77.09235	306.27551	1598.60364	-168.37616	144.61647	1555.70288	-209.27614	131.71295	1506.10669	-44.04776	60.02056	1578.23328	-81.72233	1708.26392	1418.18164	NaN	NaN	NaN	NaN	NaN	NaN	NaN	NaN	NaN	NaN	NaN	NaN
40	0.39	26.98632	1657.42432	1356.10754	34.11469	1654.59363	1488.49609	-109.79291	1614.5199	1367.47803	-101.13304	1616.45605	1496.90381	-117.91711	1458.99011	1422.83398	-168.96991	1132.2782	1431.09961	-13.10617	1375.67859	1429.60645	18.59345	1200.33325	1425.60291	-205.35126	1295.27954	1498.0863	-57.87594	1409.97681	1265.4259	-62.90419	1210.48157	1186.87085	-68.9286	1097.98914	1170.16956	-27.16834	953.03735	1149.8916	42.79877	846.27173	1198.95898	-11.7519	835.14215	1154.58447	37.68045	759.26099	1158.67834	-66.95442	1413.82385	1586.5769	-143.6183	1232.19629	1678.30872	-156.63066	1111.04639	1697.77722	-161.54855	991.78955	1722.15991	-123.84834	844.15588	1701.09924	-178.1953	854.2431	1737.4884	-151.91858	774.00812	1743.50012	12.29227	966.01666	1331.11072	0.52806	975.63818	1551.71924	-145.70711	997.11328	1352.98694	-148.84528	999.20398	1520.34558	-58.22552	649.57532	1279.84009	-59.71441	486.37411	1309.60388	-129.89374	238.05141	1322.24194	-163.7419	71.01395	1368.28174	-207.7067	59.50055	1412.74622	-23.42196	41.12603	1372.63843	19.18801	653.69995	1619.04675	68.0479	537.0899	1602.8042	-45.2245	301.31937	1597.65869	-126.03419	134.12057	1554.5387	-165.84793	118.62128	1504.67822	3.15295	58.00006	1578.13477	-66.23766	1707.43665	1418.55103	NaN	NaN	NaN	NaN	NaN	NaN	NaN	NaN	NaN	NaN	NaN	NaN
41	0.4	42.5315	1656.09399	1356.51819	49.42449	1653.10425	1488.89771	-94.25156	1613.40234	1367.68848	-86.10996	1615.29724	1497.27344	-102.74423	1457.77869	1422.54761	-154.11272	1131.05359	1430.79346	1.81744	1374.35364	1429.67065	33.36893	1198.99243	1425.24414	-190.81	1294.02234	1496.95178	-42.27017	1408.93469	1265.4303	-45.31668	1209.5741	1186.35388	-49.26627	1097.02551	1169.29175	-1.99088	953.57092	1149.92798	72.67863	850.69543	1199.91089	18.6356	836.42682	1155.98621	71.55655	763.21204	1160.5946	-52.76625	1412.26514	1586.52295	-132.13649	1231.6156	1677.36536	-147.12387	1110.70447	1696.92371	-155.08228	991.61646	1721.50684	-120.1081	843.45923	1701.84753	-175.62839	854.56769	1737.14673	-151.3022	773.48517	1743.61792	26.34786	964.39758	1329.37903	16.43418	974.81213	1550.48901	-131.76384	995.84937	1353.64209	-133.17616	998.1911	1521.04785	-48.61086	648.70117	1280.18384	-53.75166	485.19052	1309.4021	-126.81951	237.57379	1322.70532	-163.32629	71.17231	1368.64612	-207.30081	59.80043	1412.91516	-23.18953	40.93655	1372.64111	38.18801	654.43066	1619.3363	88.21272	538.46692	1602.49768	-13.44642	296.3555	1597.00403	-83.07861	124.13581	1553.64758	-121.78118	106.39706	1503.59619	50.49615	56.67944	1578.02673	-50.82117	1706.2135	1418.89783	NaN	NaN	NaN	NaN	NaN	NaN	NaN	NaN	NaN	NaN	NaN	NaN
42	0.41	58.01878	1654.46899	1357.03906	64.672	1651.34106	1489.44641	-78.76546	1611.89758	1367.96118	-70.77531	1613.61597	1497.34937	-87.44241	1456.17822	1422.30603	-139.22681	1129.63635	1430.63464	16.9011	1372.65051	1429.80017	48.21671	1197.2915	1424.85474	-176.04755	1292.40881	1495.90125	-26.66653	1407.55688	1265.40247	-27.78977	1208.41248	1185.75098	-29.61659	1095.78833	1168.34839	22.96431	954.15662	1150.17749	102.43396	855.44757	1201.15051	48.88799	838.0882	1157.51367	105.54297	767.72687	1162.61694	-38.41271	1410.32886	1586.46497	-120.55526	1230.70972	1676.48462	-137.56926	1110.11401	1696.08203	-148.52849	991.28931	1720.87903	-117.33563	842.10669	1702.08252	-172.8734	854.83875	1736.83606	-150.91786	773.02747	1743.57764	40.10246	962.55115	1328.40063	32.25684	973.50104	1549.2926	-117.92178	994.32367	1354.35876	-117.46399	996.74866	1521.77087	-39.06735	647.43713	1279.99292	-47.40037	483.82547	1309.27405	-124.10889	237.36166	1322.65222	-162.83795	71.28246	1368.94507	-206.91217	60.24207	1413.22131	-22.85198	40.78043	1372.54907	57.01163	654.67731	1619.87634	108.22195	539.22711	1601.84802	18.51953	291.43845	1596.3877	-39.60627	114.86732	1553.04517	-76.84482	94.8578	1502.78235	97.72446	55.8435	1578.18445	-35.37127	1704.5968	1419.29602	NaN	NaN	NaN	NaN	NaN	NaN	NaN	NaN	NaN	NaN	NaN	NaN
